<svg width="316" height="36" viewBox="0 0 316 36" fill="none" xmlns="http://www.w3.org/2000/svg">
<path d="M0.492188 35V2.20703L2.87305 1.08398H17.1133V1.30859L15.2939 5.17188H4.98438V15.998H17.1133V16.2227L15.2939 20.0859H4.98438V30.9121H20.8643V31.1367L19.0449 35H0.492188ZM26.502 35.8984V11.8652C26.502 8.63086 27.5127 5.97298 29.5342 3.8916C31.6605 1.72038 34.4307 0.634766 37.8447 0.634766C40.9294 0.634766 43.5573 1.72038 45.7285 3.8916C46.2676 4.43066 46.6719 4.95475 46.9414 5.46387C47.2858 4.93978 47.7051 4.43815 48.1992 3.95898C50.4603 1.74284 53.0732 0.634766 56.0381 0.634766C59.3923 0.634766 62.1624 1.72038 64.3486 3.8916C66.3701 5.89811 67.3809 8.55599 67.3809 11.8652V33.877L63.1133 35.8984H62.8887V11.8652C62.8887 9.85872 62.3496 8.23405 61.2715 6.99121C59.9388 5.44889 58.1943 4.67773 56.0381 4.67773C53.8818 4.67773 52.1374 5.44889 50.8047 6.99121C49.7266 8.23405 49.1875 9.85872 49.1875 11.8652V33.877L44.9199 35.8984H44.6953V11.8652C44.6953 9.85872 44.1562 8.23405 43.0781 6.99121C41.7454 5.44889 40.001 4.67773 37.8447 4.67773C35.6885 4.67773 33.944 5.44889 32.6113 6.99121C31.5332 8.23405 30.9941 9.85872 30.9941 11.8652V33.877L26.7266 35.8984H26.502ZM80.8574 24.2188C80.8574 26.2253 81.3965 27.8499 82.4746 29.0928C83.8073 30.6351 85.5518 31.4062 87.708 31.4062C89.8643 31.4062 91.6087 30.6351 92.9414 29.0928C94.0195 27.8499 94.5586 26.2253 94.5586 24.2188V11.8652C94.5586 9.85872 94.0195 8.23405 92.9414 6.99121C91.6087 5.44889 89.8643 4.67773 87.708 4.67773C85.5518 4.67773 83.8073 5.44889 82.4746 6.99121C81.3965 8.23405 80.8574 9.85872 80.8574 11.8652V24.2188ZM76.3652 24.2188V11.8652C76.3652 8.61589 77.376 5.95801 79.3975 3.8916C81.5238 1.72038 84.2939 0.634766 87.708 0.634766C91.1221 0.634766 93.8923 1.72038 96.0186 3.8916C98.04 5.94303 99.0508 8.60091 99.0508 11.8652V24.2188C99.0508 27.4681 98.04 30.126 96.0186 32.1924C93.8923 34.3636 91.1221 35.4492 87.708 35.4492C84.2939 35.4492 81.5238 34.3636 79.3975 32.1924C77.376 30.126 76.3652 27.4681 76.3652 24.2188ZM109.899 35.8984V5.17188H100.286V4.94727L102.105 1.08398H124.005V1.30859L122.186 5.17188H114.392V33.877L110.124 35.8984H109.899ZM126.363 35.8984V2.20703L130.631 0.185547H130.855V33.877L126.588 35.8984H126.363ZM139.84 35.8984V11.8652C139.84 8.63086 140.851 5.97298 142.872 3.8916C144.998 1.72038 147.769 0.634766 151.183 0.634766C154.552 0.634766 157.322 1.72038 159.493 3.8916C161.515 5.89811 162.525 8.55599 162.525 11.8652V33.877L158.258 35.8984H158.033V11.8652C158.033 9.85872 157.494 8.23405 156.416 6.99121C155.083 5.44889 153.339 4.67773 151.183 4.67773C149.026 4.67773 147.282 5.44889 145.949 6.99121C144.871 8.23405 144.332 9.85872 144.332 11.8652V33.877L140.064 35.8984H139.84ZM194.195 15.998V24.2188C194.195 27.4681 193.185 30.126 191.163 32.1924C189.037 34.3636 186.267 35.4492 182.853 35.4492C179.438 35.4492 176.668 34.3636 174.542 32.1924C172.521 30.126 171.51 27.4681 171.51 24.2188V11.8652C171.51 8.61589 172.521 5.95801 174.542 3.8916C176.668 1.72038 179.438 0.634766 182.853 0.634766C186.386 0.634766 189.157 1.72038 191.163 3.8916C193.185 6.06283 194.195 8.57096 194.195 11.416L189.928 13.4375H189.703V11.8652C189.703 9.85872 189.164 8.23405 188.086 6.99121C186.753 5.44889 185.009 4.67773 182.853 4.67773C180.696 4.67773 178.952 5.44889 177.619 6.99121C176.541 8.23405 176.002 9.85872 176.002 11.8652V24.2188C176.002 26.2253 176.541 27.8499 177.619 29.0928C178.952 30.6351 180.696 31.4062 182.853 31.4062C185.009 31.4062 186.753 30.6351 188.086 29.0928C189.164 27.8499 189.703 26.375 189.703 24.668V20.0859H181.887V19.8613L183.706 15.998H194.195ZM228.224 35.8984L216.769 2.02734L220.654 0.185547H220.879L230.178 28.3965L238.96 0.185547H239.185L243.07 2.02734L232.334 34.0566L228.448 35.8984H228.224ZM252.189 24.2188C252.189 26.2253 252.729 27.8499 253.807 29.0928C255.139 30.6351 256.884 31.4062 259.04 31.4062C261.196 31.4062 262.941 30.6351 264.273 29.0928C265.352 27.8499 265.891 26.2253 265.891 24.2188V11.8652C265.891 9.85872 265.352 8.23405 264.273 6.99121C262.941 5.44889 261.196 4.67773 259.04 4.67773C256.884 4.67773 255.139 5.44889 253.807 6.99121C252.729 8.23405 252.189 9.85872 252.189 11.8652V24.2188ZM247.697 24.2188V11.8652C247.697 8.61589 248.708 5.95801 250.729 3.8916C252.856 1.72038 255.626 0.634766 259.04 0.634766C262.454 0.634766 265.224 1.72038 267.351 3.8916C269.372 5.94303 270.383 8.60091 270.383 11.8652V24.2188C270.383 27.4681 269.372 30.126 267.351 32.1924C265.224 34.3636 262.454 35.4492 259.04 35.4492C255.626 35.4492 252.856 34.3636 250.729 32.1924C248.708 30.126 247.697 27.4681 247.697 24.2188ZM279.367 35.8984V2.20703L283.635 0.185547H283.859V33.877L279.592 35.8984H279.367ZM292.844 35V2.20703L295.225 1.08398H303.737C307.151 1.08398 309.922 2.1696 312.048 4.34082C314.069 6.39225 315.08 9.05013 315.08 12.3145V23.7695C315.08 27.0189 314.069 29.6768 312.048 31.7432C309.922 33.9144 307.151 35 303.737 35H292.844ZM297.336 30.957H303.737C305.894 30.957 307.638 30.1859 308.971 28.6436C310.049 27.4007 310.588 25.776 310.588 23.7695V12.3145C310.588 10.3079 310.049 8.68327 308.971 7.44043C307.638 5.89811 305.894 5.12695 303.737 5.12695H297.336V30.957Z" fill="#BCA996"/>
</svg>
