<svg width="900" height="300" viewBox="0 0 900 300" fill="none" xmlns="http://www.w3.org/2000/svg">
<rect width="900" height="300" fill="#BCA184"/>
<path d="M503.333 80H396.667C387.467 80 380 87.4667 380 96.6667V203.333C380 212.533 387.467 220 396.667 220H503.333C512.533 220 520 212.533 520 203.333V96.6667C520 87.4667 512.533 80 503.333 80ZM490 130H483.333C476.2 130 473.333 131.667 473.333 136.667V146.667H490L486.667 163.333H473.333V213.333H456.667V163.333H443.333V146.667H456.667V136.667C456.667 123.333 463.333 113.333 476.667 113.333C486.333 113.333 490 116.667 490 116.667V130Z" fill="#1B1D20"/>
</svg>
