<svg width="900" height="300" viewBox="0 0 900 300" fill="none" xmlns="http://www.w3.org/2000/svg">
<rect width="900" height="300" fill="#BCA184"/>
<g clip-path="url(#clip0_576_9)">
<path d="M450 89.5188C470.025 89.5188 472.4 89.5938 480.313 89.9563C500.638 90.8813 510.131 100.525 511.056 120.7C511.419 128.606 511.487 130.981 511.487 151.006C511.487 171.038 511.412 173.406 511.056 181.313C510.125 201.469 500.656 211.131 480.313 212.056C472.4 212.419 470.038 212.494 450 212.494C429.975 212.494 427.6 212.419 419.694 212.056C399.319 211.125 389.875 201.438 388.95 181.306C388.588 173.4 388.512 171.031 388.512 151C388.512 130.975 388.594 128.606 388.95 120.694C389.881 100.525 399.35 90.875 419.694 89.95C427.606 89.5938 429.975 89.5188 450 89.5188ZM450 76C429.631 76 427.081 76.0875 419.081 76.45C391.844 77.7 376.706 92.8125 375.456 120.075C375.087 128.081 375 130.631 375 151C375 171.369 375.087 173.925 375.45 181.925C376.7 209.162 391.813 224.3 419.075 225.55C427.081 225.912 429.631 226 450 226C470.369 226 472.925 225.912 480.925 225.55C508.138 224.3 523.313 209.187 524.544 181.925C524.913 173.925 525 171.369 525 151C525 130.631 524.912 128.081 524.55 120.081C523.325 92.8687 508.194 77.7063 480.931 76.4562C472.925 76.0875 470.369 76 450 76ZM450 112.487C428.731 112.487 411.487 129.731 411.487 151C411.487 172.269 428.731 189.519 450 189.519C471.269 189.519 488.513 172.275 488.513 151C488.513 129.731 471.269 112.487 450 112.487ZM450 176C436.194 176 425 164.813 425 151C425 137.194 436.194 126 450 126C463.806 126 475 137.194 475 151C475 164.813 463.806 176 450 176ZM490.038 101.969C485.063 101.969 481.031 106 481.031 110.969C481.031 115.937 485.063 119.969 490.038 119.969C495.006 119.969 499.031 115.937 499.031 110.969C499.031 106 495.006 101.969 490.038 101.969Z" fill="#1B1D20"/>
</g>
<defs>
<clipPath id="clip0_576_9">
<rect width="150" height="150" fill="white" transform="translate(375 76)"/>
</clipPath>
</defs>
</svg>
