<svg width="900" height="300" viewBox="0 0 900 300" fill="none" xmlns="http://www.w3.org/2000/svg">
<rect width="900" height="300" fill="#BCA184"/>
<path d="M303.229 170.137V183.803H261V116.196H275.811V170.137H303.229ZM309.77 137.953H324.005V183.799H309.77V137.953ZM316.889 115.179C319.078 115.179 321.178 116.049 322.726 117.597C324.274 119.144 325.145 121.243 325.146 123.433C325.146 127.995 321.447 131.683 316.887 131.683C312.328 131.683 308.635 127.994 308.635 123.433C308.636 121.244 309.506 119.146 311.053 117.598C312.601 116.051 314.7 115.18 316.889 115.179ZM413.856 137.948H431.284L412.6 159.144L430.895 183.799H413.024L397.92 161.151H397.736V183.799H383.506V116.191H397.736V156.598L413.856 137.948ZM331.879 137.975H345.541V144.255H345.73C347.627 140.649 352.277 136.855 359.201 136.855C373.627 136.855 376.284 146.343 376.284 158.676V183.798H362.051V161.509C362.051 156.193 361.954 149.364 354.646 149.364C347.247 149.364 346.111 155.153 346.111 161.129V183.785H331.877V137.975H331.879ZM461.265 155.55C461.359 150.806 457.657 146.821 452.529 146.821C446.269 146.821 442.851 151.091 442.476 155.55H461.265ZM473.314 175.852C468.761 181.641 461.267 184.964 453.845 184.964C439.613 184.964 428.226 175.47 428.226 160.763C428.226 146.056 439.613 136.584 453.845 136.584C467.14 136.584 475.481 146.072 475.481 160.763V165.222H442.458C443.589 170.631 447.676 174.14 453.182 174.14C457.833 174.14 460.962 171.785 463.336 168.54L473.314 175.852ZM505.14 149.047C498.027 149.047 493.76 153.795 493.76 160.716C493.76 167.65 498.03 172.388 505.14 172.388C512.261 172.388 516.534 167.65 516.534 160.716C516.532 153.795 512.263 149.047 505.14 149.047ZM529.633 183.777H516.535V177.701H516.35C514.16 181.022 508.661 184.914 502.207 184.914C488.537 184.914 479.525 175.049 479.525 161.096C479.525 148.284 487.495 136.518 500.589 136.518C506.477 136.518 511.98 138.13 515.191 142.589H515.377V116.191H529.617L529.633 183.777Z" fill="#1B1D20"/>
<path d="M632.766 102H550.953C547.028 102 543.867 105.099 543.867 108.918V191.076C543.867 194.899 547.044 198 550.953 198H632.766C636.682 198 639.872 194.898 639.872 191.076V108.918C639.874 105.099 636.683 102 632.766 102Z" fill="#1B1D20"/>
<path d="M558.102 137.989H572.343V183.804H558.102V137.989ZM565.225 115.215C567.413 115.217 569.511 116.087 571.058 117.635C572.605 119.182 573.475 121.281 573.476 123.469C573.476 125.658 572.607 127.757 571.059 129.305C569.512 130.853 567.414 131.724 565.225 131.726C563.035 131.726 560.935 130.856 559.386 129.308C557.837 127.759 556.967 125.659 556.967 123.469C556.968 121.279 557.839 119.18 559.387 117.632C560.936 116.084 563.036 115.215 565.225 115.215ZM581.272 137.989H594.928V144.233H595.117C597.001 140.631 601.664 136.833 608.588 136.833C623.008 136.833 625.671 146.323 625.671 158.658V183.787H611.444V161.492C611.444 156.178 611.347 149.344 604.044 149.344C596.633 149.344 595.498 155.131 595.498 161.107V183.771H581.273V137.956L581.272 137.989Z" fill="#BCA184"/>
</svg>
