<svg width="900" height="300" viewBox="0 0 900 300" fill="none" xmlns="http://www.w3.org/2000/svg">
<rect width="900" height="300" fill="#BCA184"/>
<ellipse cx="531.222" cy="148.287" rx="0.777743" ry="0.780021" fill="#1B1D20"/>
<path d="M528.81 145.85C516.332 133.3 459.25 76.0515 450.162 66.9717" stroke="#1B1D20" stroke-width="0.89" stroke-miterlimit="10" stroke-linecap="round" stroke-dasharray="3.78 3.78"/>
<ellipse cx="449.009" cy="65.78" rx="0.777743" ry="0.780021" fill="#1B1D20"/>
<path d="M446.597 68.1982L367.949 147.077" stroke="#1B1D20" stroke-width="0.89" stroke-miterlimit="10" stroke-linecap="round" stroke-dasharray="3.78 3.78"/>
<ellipse cx="366.778" cy="148.252" rx="0.777743" ry="0.780021" fill="#1B1D20"/>
<path d="M366.778 148.287L449.009 235.79L531.24 148.287L449.009 226.762L366.778 148.287Z" fill="#1B1D20" stroke="#1B1D20" stroke-width="1.59" stroke-miterlimit="10"/>
<path d="M447.279 143.168H460.631C462.379 138.611 459.722 133.492 455.668 131.196C447.313 126.113 436.145 132.598 434.24 141.713C430.046 160.206 451.316 172.616 466.748 163.677C480.328 156.665 484.086 138.365 476.623 125.482C457.765 95.9989 415.12 111.459 414.124 145.079C413.233 164.045 427.914 181.661 446.282 185.394C480.59 192.406 508.327 158.541 497.963 125.797C484.103 82.6772 426.69 78.4703 403.236 115.736C384.605 145.096 397.153 184.886 428.106 199.785C442.123 206.547 458.149 207.828 473.058 203.379C487.913 199.049 481.01 197.594 481.01 197.594" stroke="#1B1D20" stroke-width="1.19" stroke-miterlimit="10"/>
</svg>
