<svg width="900" height="300" viewBox="0 0 900 300" fill="none" xmlns="http://www.w3.org/2000/svg">
<rect width="900" height="300" fill="#BCA184"/>
<path d="M383.525 216.167L392.992 181.76C387.152 171.692 384.08 160.266 384.084 148.564C384.102 111.953 414.028 82.167 450.806 82.167C468.655 82.174 485.403 89.0904 498.001 101.639C510.595 114.192 517.532 130.872 517.525 148.616C517.511 185.227 487.578 215.016 450.806 215.016H450.778C439.614 215.013 428.639 212.224 418.895 206.931L383.525 216.167Z" fill="#1B1D20"/>
<path d="M383.504 218.413C383.042 218.413 382.593 218.231 382.261 217.895C381.823 217.45 381.651 216.802 381.816 216.203L391.059 182.452C385.329 172.274 382.306 160.715 382.313 148.982C382.327 111.357 412.943 80.752 450.564 80.752C468.812 80.759 485.957 87.8656 498.843 100.762C511.729 113.662 518.822 130.803 518.815 149.031C518.801 186.652 488.181 217.261 450.564 217.261C439.394 217.257 428.344 214.501 418.537 209.285L383.949 218.353C383.802 218.395 383.655 218.413 383.504 218.413Z" fill="#1B1D20"/>
<path d="M450.564 82.5026C468.353 82.5096 485.047 89.4341 497.603 101.998C510.156 114.565 517.07 131.265 517.063 149.03C517.049 185.684 487.215 215.509 450.564 215.509H450.536C439.408 215.505 428.47 212.714 418.757 207.414L383.504 216.661L392.94 182.213C387.119 172.133 384.057 160.694 384.061 148.978C384.078 112.323 413.906 82.5026 450.564 82.5026ZM450.564 79C411.98 79 380.576 110.39 380.558 148.978C380.555 160.771 383.532 172.392 389.178 182.679L380.124 215.74C379.795 216.948 380.131 218.237 381.014 219.127C381.679 219.799 382.579 220.167 383.504 220.167C383.802 220.167 384.099 220.128 384.394 220.051L418.323 211.155C428.228 216.297 439.331 219.011 450.536 219.015C489.148 219.015 520.552 187.621 520.569 149.034C520.576 130.333 513.302 112.751 500.087 99.525C486.864 86.2958 469.278 79.007 450.564 79Z" fill="#1B1D20"/>
<path d="M489.431 110.289C479.045 99.8965 465.24 94.1705 450.546 94.167C420.211 94.167 395.539 118.828 395.525 149.141C395.522 159.53 398.428 169.644 403.935 178.402L405.246 180.482L399.687 200.769L420.504 195.311L422.515 196.503C430.956 201.515 440.638 204.164 450.508 204.167H450.529C480.843 204.167 505.515 179.503 505.525 149.186C505.529 134.496 499.816 120.682 489.431 110.289Z" fill="#BCA184"/>
<path fill-rule="evenodd" clip-rule="evenodd" d="M433.817 121.095C432.565 118.312 431.246 118.255 430.05 118.206C429.073 118.164 427.959 118.167 426.844 118.167C425.73 118.167 423.917 118.586 422.383 120.26C420.849 121.933 416.525 125.974 416.525 134.197C416.525 142.419 422.521 150.367 423.356 151.481C424.192 152.594 434.931 170.008 451.937 176.709C466.068 182.275 468.946 181.169 472.014 180.891C475.082 180.612 481.913 176.85 483.306 172.946C484.699 169.043 484.699 165.699 484.283 165.002C483.863 164.304 482.749 163.889 481.077 163.05C479.406 162.212 471.178 158.171 469.644 157.614C468.11 157.057 466.995 156.779 465.877 158.453C464.763 160.122 461.557 163.889 460.58 165.002C459.603 166.119 458.627 166.259 456.955 165.421C455.283 164.583 449.895 162.821 443.501 157.128C438.528 152.699 435.171 147.228 434.194 145.555C433.217 143.885 434.088 142.98 434.927 142.145C435.679 141.394 436.599 140.193 437.438 139.217C438.274 138.241 438.553 137.544 439.11 136.43C439.667 135.313 439.389 134.338 438.969 133.503C438.556 132.664 435.305 124.399 433.817 121.095Z" fill="#1B1D20"/>
</svg>
